<svg width="28" height="28" viewBox="0 0 28 28" fill="none" xmlns="http://www.w3.org/2000/svg">
<path d="M14 13.3408C11.6802 13.3436 9.45623 14.2664 7.81588 15.9067C6.17554 17.547 5.25278 19.771 5.25 22.0908V24.3495C5.25002 24.5241 5.30408 24.6944 5.40476 24.8371C5.50544 24.9798 5.64781 25.0878 5.81233 25.1463C8.46228 25.9688 11.2257 26.3669 14 26.3258C16.7743 26.3669 19.5377 25.9688 22.1877 25.1463C22.3522 25.0878 22.4946 24.9798 22.5952 24.8371C22.6959 24.6944 22.75 24.5241 22.75 24.3495V22.0908C22.7472 19.771 21.8245 17.547 20.1841 15.9067C18.5438 14.2664 16.3198 13.3436 14 13.3408Z" fill="#BDBDBD"/>
<path d="M14.0002 14.5833C17.544 14.5833 20.4168 11.7105 20.4168 8.16667C20.4168 4.62284 17.544 1.75 14.0002 1.75C10.4563 1.75 7.5835 4.62284 7.5835 8.16667C7.5835 11.7105 10.4563 14.5833 14.0002 14.5833Z" fill="#BDBDBD"/>
</svg>
